<svg width="40" height="40" viewBox="0 0 40 40" fill="none" xmlns="http://www.w3.org/2000/svg">
<path d="M19.9998 9.8586L4.82417 23.0349C4.71167 23.1347 4.56792 23.1812 4.44431 23.2639V35.9063C4.44431 36.5105 4.94153 37 5.55542 37H15.9186L13.3332 32.0228L20.563 27.6478L16.3853 19.498L26.6665 28.8481L19.4366 33.2231L22.2089 37H34.4442C35.0581 37 35.5553 36.5105 35.5553 35.9063V23.2666C35.4373 23.1873 35.297 23.1422 35.1901 23.0479L19.9998 9.8586ZM39.631 18.152L35.5553 14.6089V5.28125C35.5553 4.67695 35.0581 4.1875 34.4442 4.1875H29.9998C29.3859 4.1875 28.8887 4.67695 28.8887 5.28125V8.81475L21.8575 2.70479C21.3276 2.23584 20.6637 2.00069 19.9998 2C19.3359 1.99932 18.6734 2.23311 18.1457 2.70205L0.368628 18.152C-0.0876213 18.556 -0.125816 19.2471 0.2846 19.6969L1.77071 21.3252C2.18043 21.7743 2.8832 21.8119 3.34015 21.4079L19.2651 7.58018C19.6852 7.21582 20.3151 7.21582 20.7352 7.58018L36.6602 21.4072C37.1164 21.8105 37.8192 21.7736 38.2296 21.3245L39.7157 19.6962C40.1255 19.2471 40.088 18.5553 39.631 18.152V18.152Z" fill="#7B2242"/>
</svg>
