<svg width="40" height="40" viewBox="0 0 40 40" fill="none" xmlns="http://www.w3.org/2000/svg">
<path d="M6.66675 26.6666H25.0001C27.7616 26.6666 30.0001 28.9051 30.0001 31.6666C30.0001 34.4281 27.7616 36.6666 25.0001 36.6666C22.2386 36.6666 20.0001 34.4281 20.0001 31.6666" stroke="#7B2242" stroke-width="3.33333" stroke-linecap="round" stroke-linejoin="round"/>
<path d="M5.00006 13.3333H16.6667C19.4282 13.3333 21.6667 11.0947 21.6667 8.33331C21.6667 5.5719 19.4282 3.33331 16.6667 3.33331C13.9053 3.33331 11.6667 5.5719 11.6667 8.33331" stroke="#7B2242" stroke-width="3.33333" stroke-linecap="round" stroke-linejoin="round"/>
<path d="M3.33337 20H31.6667C34.4282 20 36.6667 17.7615 36.6667 15C36.6667 12.2386 34.4282 10 31.6667 10C28.9052 10 26.6667 12.2386 26.6667 15" stroke="#7B2242" stroke-width="3.33333" stroke-linecap="round" stroke-linejoin="round"/>
</svg>
