<svg width="40" height="40" viewBox="0 0 40 40" fill="none" xmlns="http://www.w3.org/2000/svg">
<path d="M35 26.6666V6.66665H4.99996V26.6666H35ZM35 3.33331C35.884 3.33331 36.7319 3.6845 37.357 4.30962C37.9821 4.93474 38.3333 5.78259 38.3333 6.66665V26.6666C38.3333 27.5507 37.9821 28.3985 37.357 29.0237C36.7319 29.6488 35.884 30 35 30H23.3333V33.3333H26.6666V36.6666H13.3333V33.3333H16.6666V30H4.99996C3.14996 30 1.66663 28.5 1.66663 26.6666V6.66665C1.66663 4.81665 3.14996 3.33331 4.99996 3.33331H35ZM8.33329 9.99998H23.3333V18.3333H8.33329V9.99998ZM25 9.99998H31.6666V13.3333H25V9.99998ZM31.6666 15V23.3333H25V15H31.6666ZM8.33329 20H15V23.3333H8.33329V20ZM16.6666 20H23.3333V23.3333H16.6666V20Z" fill="#7B2242"/>
</svg>
