<svg width="44" height="48" viewBox="0 0 44 48" fill="none" xmlns="http://www.w3.org/2000/svg">
<g clip-path="url(#clip0_36_151)" filter="url(#filter0_d_36_151)">
<path d="M32.4135 25.4338C32.0248 25.0537 31.4038 25.0537 31.0151 25.4338L30.7322 25.7104C30.3315 26.1023 30.331 26.7469 30.7312 27.1393L32.6015 28.9735C33.241 29.6006 32.797 30.6875 31.9014 30.6875H14.7143C13.4261 30.6875 12.1907 30.1871 11.2798 29.2963C10.3689 28.4055 9.85714 27.1973 9.85714 25.9375C9.85714 24.6777 10.3689 23.4695 11.2798 22.5787C12.1907 21.6879 13.4261 21.1875 14.7143 21.1875H29.2857C31.218 21.1875 33.0712 20.4368 34.4375 19.1006C35.8038 17.7644 36.5714 15.9522 36.5714 14.0625C36.5714 12.1728 35.8038 10.3606 34.4375 9.02436C33.0712 7.68817 31.218 6.9375 29.2857 6.9375H12.0986C11.203 6.9375 10.759 5.85062 11.3985 5.22353L13.2688 3.38934C13.669 2.99692 13.6685 2.35229 13.2678 1.96042L12.9849 1.68375C12.5963 1.30369 11.9752 1.30369 11.5865 1.68375L5.73107 7.41005C5.32998 7.8023 5.32998 8.4477 5.73107 8.83995L11.5865 14.5662C11.9752 14.9463 12.5962 14.9463 12.9849 14.5662L13.2678 14.2896C13.6685 13.8977 13.669 13.2531 13.2688 12.8607L11.3985 11.0265C10.759 10.3994 11.203 9.3125 12.0986 9.3125H29.2857C30.5739 9.3125 31.8093 9.81294 32.7202 10.7037C33.6311 11.5945 34.1429 12.8027 34.1429 14.0625C34.1429 15.3223 33.6311 16.5305 32.7202 17.4213C31.8093 18.3121 30.5739 18.8125 29.2857 18.8125H14.7143C12.782 18.8125 10.9288 19.5632 9.56251 20.8994C8.19617 22.2356 7.42857 24.0478 7.42857 25.9375C7.42857 27.8272 8.19617 29.6394 9.56251 30.9756C10.9288 32.3118 12.782 33.0625 14.7143 33.0625H31.9014C32.797 33.0625 33.241 34.1494 32.6015 34.7765L30.7312 36.6107C30.331 37.0031 30.3315 37.6477 30.7322 38.0396L31.0151 38.3162C31.4038 38.6963 32.0248 38.6963 32.4135 38.3162L38.2689 32.5899C38.67 32.1977 38.67 31.5523 38.2689 31.1601L32.4135 25.4338Z" fill="#7B2242" stroke="#7B2242"/>
</g>
<defs>
<filter id="filter0_d_36_151" x="-2" y="0" width="48" height="48" filterUnits="userSpaceOnUse" color-interpolation-filters="sRGB">
<feFlood flood-opacity="0" result="BackgroundImageFix"/>
<feColorMatrix in="SourceAlpha" type="matrix" values="0 0 0 0 0 0 0 0 0 0 0 0 0 0 0 0 0 0 127 0" result="hardAlpha"/>
<feOffset dy="4"/>
<feGaussianBlur stdDeviation="2"/>
<feComposite in2="hardAlpha" operator="out"/>
<feColorMatrix type="matrix" values="0 0 0 0 0 0 0 0 0 0 0 0 0 0 0 0 0 0 0.25 0"/>
<feBlend mode="normal" in2="BackgroundImageFix" result="effect1_dropShadow_36_151"/>
<feBlend mode="normal" in="SourceGraphic" in2="effect1_dropShadow_36_151" result="shape"/>
</filter>
<clipPath id="clip0_36_151">
<rect width="40" height="40" fill="white" transform="translate(2)"/>
</clipPath>
</defs>
</svg>
