<svg width="40" height="40" viewBox="0 0 40 40" fill="none" xmlns="http://www.w3.org/2000/svg">
<g clip-path="url(#clip0_36_146)">
<path d="M31.6666 31.6667H6.66665V5H31.6666M19.1666 38.3333C18.5036 38.3333 17.8677 38.0699 17.3989 37.6011C16.93 37.1323 16.6666 36.4964 16.6666 35.8333C16.6666 35.1703 16.93 34.5344 17.3989 34.0656C17.8677 33.5967 18.5036 33.3333 19.1666 33.3333C19.8297 33.3333 20.4656 33.5967 20.9344 34.0656C21.4033 34.5344 21.6666 35.1703 21.6666 35.8333C21.6666 36.4964 21.4033 37.1323 20.9344 37.6011C20.4656 38.0699 19.8297 38.3333 19.1666 38.3333ZM30.8333 0H7.49998C6.39491 0 5.3351 0.438987 4.5537 1.22039C3.7723 2.00179 3.33331 3.0616 3.33331 4.16667V35.8333C3.33331 36.3805 3.44109 36.9223 3.65048 37.4278C3.85988 37.9334 4.16679 38.3927 4.5537 38.7796C4.94061 39.1665 5.39994 39.4734 5.90547 39.6828C6.41099 39.8922 6.95281 40 7.49998 40H30.8333C31.3805 40 31.9223 39.8922 32.4278 39.6828C32.9333 39.4734 33.3927 39.1665 33.7796 38.7796C34.1665 38.3927 34.4734 37.9334 34.6828 37.4278C34.8922 36.9223 35 36.3805 35 35.8333V4.16667C35 3.0616 34.561 2.00179 33.7796 1.22039C32.9982 0.438987 31.9384 0 30.8333 0V0Z" fill="#7B2242"/>
</g>
<defs>
<clipPath id="clip0_36_146">
<rect width="40" height="40" fill="white"/>
</clipPath>
</defs>
</svg>
