<svg width="40" height="40" viewBox="0 0 40 40" fill="none" xmlns="http://www.w3.org/2000/svg">
<path d="M37.5 17.0836V22.9164" stroke="#7B2242" stroke-width="2.5" stroke-miterlimit="10" stroke-linecap="round"/>
<path d="M30.1797 11.25H6.07031C4.09848 11.25 2.5 12.8485 2.5 14.8203V25.1797C2.5 27.1515 4.09848 28.75 6.07031 28.75H30.1797C32.1515 28.75 33.75 27.1515 33.75 25.1797V14.8203C33.75 12.8485 32.1515 11.25 30.1797 11.25Z" stroke="#7B2242" stroke-width="2.5" stroke-miterlimit="10" stroke-linecap="square"/>
<path d="M29.2438 15.5414H7.00708C6.83449 15.5414 6.69458 15.6813 6.69458 15.8539V24.1461C6.69458 24.3187 6.83449 24.4586 7.00708 24.4586H29.2438C29.4164 24.4586 29.5563 24.3187 29.5563 24.1461V15.8539C29.5563 15.6813 29.4164 15.5414 29.2438 15.5414Z" fill="#7B2242" stroke="#7B2242" stroke-width="2.5" stroke-miterlimit="10" stroke-linecap="square"/>
</svg>
