<svg width="40" height="40" viewBox="0 0 40 40" fill="none" xmlns="http://www.w3.org/2000/svg">
<g opacity="0.8">
<path d="M38.6978 14.1314C28.1783 4.62112 11.8175 4.6246 1.30217 14.1314C0.906731 14.4889 0.899012 15.0942 1.28139 15.4651L3.31439 17.4366C3.67895 17.7906 4.26558 17.7981 4.64439 17.4586C13.3084 9.7004 26.6903 9.69866 35.3561 17.4586C35.7349 17.7981 36.3216 17.79 36.6861 17.4366L38.7191 15.4651C39.1009 15.0942 39.0932 14.4889 38.6978 14.1314ZM20 25.5714C17.9011 25.5714 16.2 27.2342 16.2 29.2857C16.2 31.3373 17.9011 33 20 33C22.0989 33 23.8 31.3373 23.8 29.2857C23.8 27.2342 22.0989 25.5714 20 25.5714ZM32.0335 20.7202C25.1899 14.8046 14.8023 14.811 7.96642 20.7202C7.55673 21.0742 7.54367 21.6888 7.93258 22.0637L9.97745 24.0364C10.3337 24.38 10.9073 24.4032 11.2867 24.0828C16.2712 19.8712 23.74 19.8804 28.7127 24.0828C29.0921 24.4032 29.6656 24.3805 30.0219 24.0364L32.0667 22.0637C32.4562 21.6888 32.4426 21.0737 32.0335 20.7202Z" fill="#7B2242"/>
</g>
</svg>
