<svg width="28" height="28" viewBox="0 0 28 28" fill="none" xmlns="http://www.w3.org/2000/svg">
<path d="M26 19.25C24.125 19.25 22.325 18.95 20.645 18.395C20.12 18.23 19.535 18.35 19.115 18.755L15.815 22.055C11.57 19.895 8.09 16.43 5.93 12.17L9.23 8.855C9.65 8.465 9.77 7.88 9.605 7.355C9.05 5.675 8.75 3.875 8.75 2C8.75 1.175 8.075 0.5 7.25 0.5H2C1.175 0.5 0.5 1.175 0.5 2C0.5 16.085 11.915 27.5 26 27.5C26.825 27.5 27.5 26.825 27.5 26V20.75C27.5 19.925 26.825 19.25 26 19.25ZM24.5 14H27.5C27.5 6.545 21.455 0.5 14 0.5V3.5C19.805 3.5 24.5 8.195 24.5 14ZM18.5 14H21.5C21.5 9.86 18.14 6.5 14 6.5V9.5C16.49 9.5 18.5 11.51 18.5 14Z" fill="#7B2242"/>
</svg>
